<svg width="218" height="300" viewBox="0 0 218 300" fill="none" xmlns="http://www.w3.org/2000/svg">
<path d="M205.726 258.372L205.726 258.372L109.483 299.156L13.241 258.372C6.1068 255.339 1.46826 248.353 1.46826 240.606V42.2022C1.46826 33.0151 7.9781 25.2153 16.9639 23.2921C22.9117 22.0208 29.0498 19.0112 32.2396 12.3506L32.2399 12.3498C35.4496 5.61689 42.234 1.31445 49.7006 1.31445H169.282C176.748 1.31445 183.517 5.61639 186.743 12.3506C189.933 19.0112 196.071 22.0208 202.019 23.2922L202.02 23.2923C210.988 25.1992 217.498 33.0142 217.498 42.2022V240.606C217.498 248.354 212.859 255.355 205.726 258.372Z" fill="#1E1E1E" stroke="url(#paint0_linear_2510_2015)"/>
<defs>
<linearGradient id="paint0_linear_2510_2015" x1="0.968262" y1="151.823" x2="217.998" y2="151.823" gradientUnits="userSpaceOnUse">
<stop stop-color="#981DB9"/>
<stop offset="1" stop-color="#0F76CE"/>
</linearGradient>
</defs>
</svg>
