<svg width="212" height="211" viewBox="0 0 212 211" fill="none" xmlns="http://www.w3.org/2000/svg">
<path d="M203.427 96.1159C214.774 107.501 214.857 118.813 203.677 130.022L172.863 160.016L156.056 142.622L160.759 137.903L73.8223 50.4994L68.5187 55.9604L51.9243 39.1417L82.7663 8.19292C93.7154 -2.79398 104.729 -2.72907 115.798 8.37835L203.427 96.1159Z" fill="white"/>
<path d="M8.62718 114.446C-2.76535 103.014 -2.87622 91.6839 8.3038 80.4652L38.2219 50.4436L55.9991 67.9392L51.2961 72.6585L138.602 160.442L143.905 154.981L160.574 171.874L129.732 202.823C118.783 213.81 107.751 213.727 96.626 202.563L8.62718 114.446Z" fill="white"/>
</svg>
