<svg width="260" height="65" viewBox="0 0 260 65" fill="none" xmlns="http://www.w3.org/2000/svg">
<path d="M1.16309 1.36046H0.663086V1.86046V62.1784V62.6784H1.16309H44.7882C52.211 62.6784 58.7889 62.0746 64.4286 60.7736C70.134 59.5631 74.6605 58.0008 78.0754 56.0745L78.0802 56.0717C81.4032 54.1479 84.12 51.7829 86.312 48.9771L86.3134 48.9753C88.4048 46.274 89.818 43.6365 90.5287 40.9777C91.3186 38.4284 91.6668 35.713 91.6668 32.8369V30.3416C91.6668 27.8994 91.4054 25.6185 90.7903 23.418C90.2594 21.2111 89.2921 19.0201 88.0792 16.7674L88.0757 16.761L88.072 16.7546C86.7441 14.4528 84.8898 12.4251 82.5203 10.669C80.1536 8.82913 77.2755 7.26223 73.9017 5.79146C70.5742 4.3032 66.3953 3.26236 61.3863 2.48506C56.4484 1.70545 50.8282 1.36046 44.7022 1.36046H1.16309ZM64.0125 21.2176L22.228 46.7453V16.558H43.1533C51.9408 16.558 58.4377 17.8469 62.7223 20.3716C63.1769 20.6394 63.607 20.9214 64.0125 21.2176ZM98.8887 1.36046H98.3887V1.86046V62.1784V62.6784H98.8887H169.102H169.602V62.1784V48.153V47.653H169.102H119.695V38.7577H167.037H167.537V38.2577V24.4904V23.9904H167.037H119.695V16.0417H168.155H168.655V15.5417V1.86046V1.36046H168.155H98.8887ZM212.544 0.5C206.764 0.5 201.658 0.844717 197.317 1.6255C192.905 2.31794 189.421 3.27314 186.79 4.41328C184.162 5.55211 182.036 6.96366 180.431 8.65786C178.761 10.4158 177.679 12.1145 177.133 13.8423C176.599 15.5317 176.335 17.3901 176.335 19.3277V20.1021C176.335 25.8959 179.119 30.335 184.596 33.3606C190.035 36.3655 198.134 37.9825 208.832 38.2413L208.835 38.2414L213.649 38.3273L213.654 38.3274L220.103 38.4995L220.107 38.4995C224.993 38.5852 228.657 38.9278 231.196 39.4349C232.469 39.732 233.516 40.0474 234.323 40.368C235.134 40.6903 235.656 41.0004 235.929 41.2688C236.511 41.9297 236.825 42.8302 236.825 44.0228C236.825 44.9058 236.666 45.5804 236.299 46.1671C235.941 46.7403 235.264 47.2918 233.992 47.9699L233.986 47.9734L233.98 47.977C232.872 48.6101 230.987 49.0329 228.314 49.3778C228.113 49.403 227.917 49.4277 227.726 49.4518C225.304 49.7574 223.57 49.9762 219.772 49.9762H215.04C208.781 49.9762 204.587 49.1795 201.918 47.6543C199.299 46.1579 198.105 43.9346 197.899 40.8915L197.868 40.4252H197.4H175.975H175.475V40.9252V41.7856C175.475 43.7066 175.649 45.5589 176.094 47.2477C176.547 48.9711 177.622 50.9239 179.189 53.0134C180.786 55.1433 182.994 56.9931 185.624 58.4833L185.63 58.4866C188.361 59.9844 192.202 61.201 197.123 62.2371C201.986 63.279 207.788 63.797 214.351 63.797H220.374C226.754 63.797 232.379 63.4525 237.152 62.5851C241.894 61.809 245.645 60.8546 248.459 59.5363C251.268 58.3068 253.477 56.7194 255.163 54.8558L255.163 54.8559L255.171 54.8472C256.83 52.9258 257.997 51.0571 258.541 49.2432C259.074 47.4659 259.337 45.4368 259.337 43.1623V42.0438C259.337 38.9145 258.653 36.1961 257.241 33.8882C255.83 31.581 253.711 29.7167 250.894 28.2633C245.364 25.3672 236.489 23.8186 224.167 23.6463L224.16 24.1463L224.167 23.6463L217.974 23.5603L217.972 23.5603L213.157 23.4743C213.156 23.4743 213.156 23.4743 213.156 23.4743C208.952 23.3884 205.726 23.1312 203.454 22.6275C202.309 22.3302 201.389 22.0364 200.688 21.7479C199.975 21.4541 199.533 21.1832 199.303 20.9532C198.727 20.3779 198.502 19.7414 198.502 18.8114C198.502 17.7635 198.744 17.056 199.216 16.5836L199.23 16.57L199.243 16.5555C199.411 16.359 199.84 16.0938 200.632 15.7942C201.396 15.5049 202.423 15.2103 203.7 14.9122C206.321 14.4056 209.383 14.1487 214.351 14.1487H217.363C220.604 14.1487 222.473 14.3186 224.855 14.6587C227.252 15.0869 229.103 15.5097 230.265 15.9234C231.502 16.4191 232.384 16.9867 233.1 17.7022C233.482 18.0845 233.792 18.4156 234.024 18.6986C234.262 18.9881 234.395 19.1986 234.452 19.3413C234.612 19.7424 234.777 20.3161 234.952 20.9278L235.055 21.2905H235.432H256.772H257.272V20.7905V20.0161C257.272 17.9788 256.917 16.1108 256.206 14.3302C255.57 12.6066 254.314 10.8284 252.565 9.07891C250.791 7.30491 248.498 5.81002 245.7 4.58606C242.893 3.35786 239.233 2.403 234.569 1.62555C229.972 0.844974 224.607 0.5 218.653 0.5H212.544Z" stroke="white"/>
</svg>
